{"nbformat":4,"nbformat_minor":0,"metadata":{"colab":{"name":"version_testing.ipynb","provenance":[],"collapsed_sections":["9s5TUob1bfce"]},"kernelspec":{"name":"python3","display_name":"Python 3"},"language_info":{"name":"python"},"accelerator":"GPU"},"cells":[{"cell_type":"code","metadata":{"id":"GaPpoYZSzX_o","colab":{"base_uri":"https://localhost:8080/"},"executionInfo":{"status":"ok","timestamp":1639202376830,"user_tz":-540,"elapsed":28300,"user":{"displayName":"Jonathan Akesson","photoUrl":"https://lh3.googleusercontent.com/a-/AOh14GhIgis85WlfsRo1PYQZiIVxhLizEKXvA6pATTzcpZ0=s64","userId":"16900488087846212720"}},"outputId":"e2d70e7e-4d75-4bad-cc21-241da35ee3aa"},"source":["from google.colab import drive\n","drive.mount('/content/drive')"],"execution_count":null,"outputs":[{"output_type":"stream","name":"stdout","text":["Mounted at /content/drive\n"]}]},{"cell_type":"code","metadata":{"id":"cSV78ENQzZvq","colab":{"base_uri":"https://localhost:8080/"},"executionInfo":{"status":"ok","timestamp":1639202559722,"user_tz":-540,"elapsed":291,"user":{"displayName":"Jonathan Akesson","photoUrl":"https://lh3.googleusercontent.com/a-/AOh14GhIgis85WlfsRo1PYQZiIVxhLizEKXvA6pATTzcpZ0=s64","userId":"16900488087846212720"}},"outputId":"db09f1d5-4625-4ce1-a885-5f34338ebb6c"},"source":["\"\"\"\n","Change directory to where this file is located\n","\"\"\"\n","%cd '/content/drive/MyDrive/Inference_With_Freq_Sent_Source'"],"execution_count":null,"outputs":[{"output_type":"stream","name":"stdout","text":["/content/drive/.shortcut-targets-by-id/1QhaTfurSRrvmx6he51WhFIUy5ZfZCNCJ/Inference_With_Freq_Sent_Source\n"]}]},{"cell_type":"code","metadata":{"id":"Ovc-FRLv2j0F"},"source":["#!pip3 install torch torchvision torchaudio\n","!pip install face_alignment"],"execution_count":null,"outputs":[]},{"cell_type":"code","metadata":{"id":"8lUHstySFmLt"},"source":["!sudo apt-get install ffmpeg"],"execution_count":null,"outputs":[]},{"cell_type":"code","metadata":{"id":"Bzgso1jm6WCt"},"source":["import torch"],"execution_count":null,"outputs":[]},{"cell_type":"code","metadata":{"colab":{"base_uri":"https://localhost:8080/"},"id":"TIV3Z1sE6T2F","executionInfo":{"status":"ok","timestamp":1639116727846,"user_tz":-540,"elapsed":266,"user":{"displayName":"JUNGERSEN MADS EMIL MARKER ­","photoUrl":"https://lh3.googleusercontent.com/a/default-user=s64","userId":"14645936410580390283"}},"outputId":"49bce460-58ad-4472-d701-c3b96d87c45b"},"source":["torch.cuda.is_available()"],"execution_count":null,"outputs":[{"output_type":"execute_result","data":{"text/plain":["True"]},"metadata":{},"execution_count":7}]},{"cell_type":"markdown","source":["# Trying our method (getting source image every 6th frame) W.O. SR\n","\n","Created new parser arguments to achive this:\n","\n","* --new_method 1 (implements our new simple method)\n","* --freq 6 (sets the frequency of source images to be sent)"],"metadata":{"id":"Za5ol4-pGclV"}},{"cell_type":"code","metadata":{"colab":{"base_uri":"https://localhost:8080/"},"id":"3Sa8uVSAyTUP","executionInfo":{"status":"ok","timestamp":1639133394527,"user_tz":-540,"elapsed":48283,"user":{"displayName":"JUNGERSEN MADS EMIL MARKER ­","photoUrl":"https://lh3.googleusercontent.com/a/default-user=s64","userId":"14645936410580390283"}},"outputId":"39818423-7cda-4af9-e5d3-055fb4693f1f"},"source":["!python demo.py --config config/vox-256.yaml --checkpoint 15kp-ep119.pth.tar  --source_image Inf_DATA/obm.jpg --driving_video Inf_DATA/drive3.mp4 --relative --adapt_scale --new_method 1 --freq 6 --result_video result_newmethod_6.mp4"],"execution_count":null,"outputs":[{"output_type":"stream","name":"stdout","text":["estimate jacobian: False\n","torch.Size([1, 3, 256, 256])\n","Traceback (most recent call last):\n","  File \"demo.py\", line 319, in <module>\n","    predictions = make_animation(source_image, driving_video, generator, kp_detector, he_estimator, relative=opt.relative, adapt_movement_scale=opt.adapt_scale, estimate_jacobian=estimate_jacobian, cpu=opt.cpu, free_view=opt.free_view, yaw=opt.yaw, pitch=opt.pitch, roll=opt.roll, new_method = opt.new_method, freq = opt.freq)\n","  File \"demo.py\", line 192, in make_animation\n","    0/0\n","ZeroDivisionError: division by zero\n"]}]},{"cell_type":"code","source":["!python demo.py --config config/vox-256.yaml --checkpoint 15kp-ep119.pth.tar  --source_image Inf_DATA/obm.jpg --driving_video Inf_DATA/drive3.mp4 --relative --adapt_scale --new_method 1 --freq 15 --result_video no_esrgan.mp4"],"metadata":{"colab":{"base_uri":"https://localhost:8080/"},"id":"OnVhDkhZZNxf","executionInfo":{"status":"ok","timestamp":1639191301048,"user_tz":-540,"elapsed":404966,"user":{"displayName":"Jonathan Akesson","photoUrl":"https://lh3.googleusercontent.com/a-/AOh14GhIgis85WlfsRo1PYQZiIVxhLizEKXvA6pATTzcpZ0=s64","userId":"16900488087846212720"}},"outputId":"25b5515d-11de-4802-8a3f-8020c59a59c9"},"execution_count":null,"outputs":[{"output_type":"stream","name":"stdout","text":["estimate jacobian: False\n","/usr/local/lib/python3.7/dist-packages/torch/nn/functional.py:3635: UserWarning: Default upsampling behavior when mode=trilinear is changed to align_corners=False since 0.4.0. Please specify align_corners=True if the old behavior is desired. See the documentation of nn.Upsample for details.\n","  \"See the documentation of nn.Upsample for details.\".format(mode)\n","demo.py:70: UserWarning: Implicit dimension choice for softmax has been deprecated. Change the call to include dim=X as an argument.\n","  pred = F.softmax(pred)\n","  0% 0/646 [00:00<?, ?it/s]/usr/local/lib/python3.7/dist-packages/torch/nn/functional.py:4004: UserWarning: Default grid_sample and affine_grid behavior has changed to align_corners=False since 1.3.0. Please specify align_corners=True if the old behavior is desired. See the documentation of grid_sample for details.\n","  \"Default grid_sample and affine_grid behavior has changed \"\n","/usr/local/lib/python3.7/dist-packages/torch/nn/functional.py:1806: UserWarning: nn.functional.sigmoid is deprecated. Use torch.sigmoid instead.\n","  warnings.warn(\"nn.functional.sigmoid is deprecated. Use torch.sigmoid instead.\")\n","100% 646/646 [06:15<00:00,  1.72it/s]\n","(256, 256, 3)\n"]}]},{"cell_type":"markdown","source":["## Creating comparison video"],"metadata":{"id":"9s5TUob1bfce"}},{"cell_type":"code","metadata":{"colab":{"base_uri":"https://localhost:8080/"},"id":"OTQKFjf8-3_V","executionInfo":{"status":"ok","timestamp":1639207432680,"user_tz":-540,"elapsed":8770,"user":{"displayName":"Jonathan Akesson","photoUrl":"https://lh3.googleusercontent.com/a-/AOh14GhIgis85WlfsRo1PYQZiIVxhLizEKXvA6pATTzcpZ0=s64","userId":"16900488087846212720"}},"outputId":"88a02f19-f873-4dd0-9e13-d1116543ffc2"},"source":["!ffmpeg -i Testing_results/esrgan_everyFrame.mp4 -i Testing_results/no_esrgan_everyFrame.mp4 -filter_complex hstack Testing_results/Comparison_everyFrames.mp4"],"execution_count":null,"outputs":[{"output_type":"stream","name":"stdout","text":["ffmpeg version 3.4.8-0ubuntu0.2 Copyright (c) 2000-2020 the FFmpeg developers\n","  built with gcc 7 (Ubuntu 7.5.0-3ubuntu1~18.04)\n","  configuration: --prefix=/usr --extra-version=0ubuntu0.2 --toolchain=hardened --libdir=/usr/lib/x86_64-linux-gnu --incdir=/usr/include/x86_64-linux-gnu --enable-gpl --disable-stripping --enable-avresample --enable-avisynth --enable-gnutls --enable-ladspa --enable-libass --enable-libbluray --enable-libbs2b --enable-libcaca --enable-libcdio --enable-libflite --enable-libfontconfig --enable-libfreetype --enable-libfribidi --enable-libgme --enable-libgsm --enable-libmp3lame --enable-libmysofa --enable-libopenjpeg --enable-libopenmpt --enable-libopus --enable-libpulse --enable-librubberband --enable-librsvg --enable-libshine --enable-libsnappy --enable-libsoxr --enable-libspeex --enable-libssh --enable-libtheora --enable-libtwolame --enable-libvorbis --enable-libvpx --enable-libwavpack --enable-libwebp --enable-libx265 --enable-libxml2 --enable-libxvid --enable-libzmq --enable-libzvbi --enable-omx --enable-openal --enable-opengl --enable-sdl2 --enable-libdc1394 --enable-libdrm --enable-libiec61883 --enable-chromaprint --enable-frei0r --enable-libopencv --enable-libx264 --enable-shared\n","  libavutil      55. 78.100 / 55. 78.100\n","  libavcodec     57.107.100 / 57.107.100\n","  libavformat    57. 83.100 / 57. 83.100\n","  libavdevice    57. 10.100 / 57. 10.100\n","  libavfilter     6.107.100 /  6.107.100\n","  libavresample   3.  7.  0 /  3.  7.  0\n","  libswscale      4.  8.100 /  4.  8.100\n","  libswresample   2.  9.100 /  2.  9.100\n","  libpostproc    54.  7.100 / 54.  7.100\n","Input #0, mov,mp4,m4a,3gp,3g2,mj2, from 'Testing_results/esrgan_everyFrame.mp4':\n","  Metadata:\n","    major_brand     : isom\n","    minor_version   : 512\n","    compatible_brands: isomiso2avc1mp41\n","    encoder         : Lavf57.83.100\n","  Duration: 00:01:04.60, start: 0.000000, bitrate: 104 kb/s\n","    Stream #0:0(und): Video: h264 (High) (avc1 / 0x31637661), yuv420p, 256x256, 103 kb/s, 10 fps, 10 tbr, 10240 tbn, 20 tbc (default)\n","    Metadata:\n","      handler_name    : VideoHandler\n","Input #1, mov,mp4,m4a,3gp,3g2,mj2, from 'Testing_results/no_esrgan_everyFrame.mp4':\n","  Metadata:\n","    major_brand     : isom\n","    minor_version   : 512\n","    compatible_brands: isomiso2avc1mp41\n","    encoder         : Lavf57.83.100\n","  Duration: 00:01:04.60, start: 0.000000, bitrate: 107 kb/s\n","    Stream #1:0(und): Video: h264 (High) (avc1 / 0x31637661), yuv420p, 256x256, 106 kb/s, 10 fps, 10 tbr, 10240 tbn, 20 tbc (default)\n","    Metadata:\n","      handler_name    : VideoHandler\n","Stream mapping:\n","  Stream #0:0 (h264) -> hstack:input0\n","  Stream #1:0 (h264) -> hstack:input1\n","  hstack -> Stream #0:0 (libx264)\n","Press [q] to stop, [?] for help\n","\u001b[1;36m[libx264 @ 0x555bec491400] \u001b[0musing cpu capabilities: MMX2 SSE2Fast SSSE3 SSE4.2 AVX FMA3 BMI2 AVX2\n","\u001b[1;36m[libx264 @ 0x555bec491400] \u001b[0mprofile High, level 2.1\n","\u001b[1;36m[libx264 @ 0x555bec491400] \u001b[0m264 - core 152 r2854 e9a5903 - H.264/MPEG-4 AVC codec - Copyleft 2003-2017 - http://www.videolan.org/x264.html - options: cabac=1 ref=3 deblock=1:0:0 analyse=0x3:0x113 me=hex subme=7 psy=1 psy_rd=1.00:0.00 mixed_ref=1 me_range=16 chroma_me=1 trellis=1 8x8dct=1 cqm=0 deadzone=21,11 fast_pskip=1 chroma_qp_offset=-2 threads=3 lookahead_threads=1 sliced_threads=0 nr=0 decimate=1 interlaced=0 bluray_compat=0 constrained_intra=0 bframes=3 b_pyramid=2 b_adapt=1 b_bias=0 direct=1 weightb=1 open_gop=0 weightp=2 keyint=250 keyint_min=10 scenecut=40 intra_refresh=0 rc_lookahead=40 rc=crf mbtree=1 crf=23.0 qcomp=0.60 qpmin=0 qpmax=69 qpstep=4 ip_ratio=1.40 aq=1:1.00\n","Output #0, mp4, to 'Testing_results/Comparison_everyFrames.mp4':\n","  Metadata:\n","    major_brand     : isom\n","    minor_version   : 512\n","    compatible_brands: isomiso2avc1mp41\n","    encoder         : Lavf57.83.100\n","    Stream #0:0: Video: h264 (libx264) (avc1 / 0x31637661), yuv420p, 512x256, q=-1--1, 10 fps, 10240 tbn, 10 tbc (default)\n","    Metadata:\n","      encoder         : Lavc57.107.100 libx264\n","    Side data:\n","      cpb: bitrate max/min/avg: 0/0/0 buffer size: 0 vbv_delay: -1\n","frame=  646 fps= 78 q=-1.0 Lsize=    1856kB time=00:01:04.30 bitrate= 236.5kbits/s speed=7.76x    \n","video:1848kB audio:0kB subtitle:0kB other streams:0kB global headers:0kB muxing overhead: 0.454225%\n","\u001b[1;36m[libx264 @ 0x555bec491400] \u001b[0mframe I:3     Avg QP:17.72  size: 12213\n","\u001b[1;36m[libx264 @ 0x555bec491400] \u001b[0mframe P:166   Avg QP:20.32  size:  6207\n","\u001b[1;36m[libx264 @ 0x555bec491400] \u001b[0mframe B:477   Avg QP:24.17  size:  1729\n","\u001b[1;36m[libx264 @ 0x555bec491400] \u001b[0mconsecutive B-frames:  0.8%  2.2%  0.5% 96.6%\n","\u001b[1;36m[libx264 @ 0x555bec491400] \u001b[0mmb I  I16..4:  6.4% 71.2% 22.4%\n","\u001b[1;36m[libx264 @ 0x555bec491400] \u001b[0mmb P  I16..4:  1.2% 11.6%  2.0%  P16..4: 35.7% 29.5% 13.1%  0.0%  0.0%    skip: 7.0%\n","\u001b[1;36m[libx264 @ 0x555bec491400] \u001b[0mmb B  I16..4:  0.1%  0.7%  0.1%  B16..8: 47.2% 12.6%  2.4%  direct: 3.0%  skip:33.9%  L0:42.1% L1:44.4% BI:13.5%\n","\u001b[1;36m[libx264 @ 0x555bec491400] \u001b[0m8x8 transform intra:78.5% inter:73.1%\n","\u001b[1;36m[libx264 @ 0x555bec491400] \u001b[0mcoded y,uvDC,uvAC intra: 75.4% 82.6% 36.4% inter: 23.2% 20.6% 0.2%\n","\u001b[1;36m[libx264 @ 0x555bec491400] \u001b[0mi16 v,h,dc,p: 38% 14% 22% 27%\n","\u001b[1;36m[libx264 @ 0x555bec491400] \u001b[0mi8 v,h,dc,ddl,ddr,vr,hd,vl,hu: 19% 12% 13%  5% 12% 14%  9% 10%  7%\n","\u001b[1;36m[libx264 @ 0x555bec491400] \u001b[0mi4 v,h,dc,ddl,ddr,vr,hd,vl,hu: 21% 15% 10%  5% 13% 12% 10%  6%  7%\n","\u001b[1;36m[libx264 @ 0x555bec491400] \u001b[0mi8c dc,h,v,p: 45% 17% 24% 14%\n","\u001b[1;36m[libx264 @ 0x555bec491400] \u001b[0mWeighted P-Frames: Y:3.6% UV:0.0%\n","\u001b[1;36m[libx264 @ 0x555bec491400] \u001b[0mref P L0: 54.2% 18.0% 18.7%  8.7%  0.3%\n","\u001b[1;36m[libx264 @ 0x555bec491400] \u001b[0mref B L0: 90.2%  7.4%  2.4%\n","\u001b[1;36m[libx264 @ 0x555bec491400] \u001b[0mref B L1: 97.3%  2.7%\n","\u001b[1;36m[libx264 @ 0x555bec491400] \u001b[0mkb/s:234.25\n"]}]},{"cell_type":"markdown","source":["## Creating comparison video2 (the two methods merged with the original driving)"],"metadata":{"id":"P7mxqUwzb68U"}},{"cell_type":"code","metadata":{"colab":{"base_uri":"https://localhost:8080/"},"executionInfo":{"status":"ok","timestamp":1639124635822,"user_tz":-540,"elapsed":11319,"user":{"displayName":"JUNGERSEN MADS EMIL MARKER ­","photoUrl":"https://lh3.googleusercontent.com/a/default-user=s64","userId":"14645936410580390283"}},"outputId":"0b6f7a60-98e0-4837-8c6e-c52d5918eadc","id":"SJ2NBYV1b68V"},"source":["!ffmpeg -i Inf_DATA/drive3.mp4 -i Comparison_6_0.mp4 -filter_complex hstack Final_Comparison_6_0.mp4"],"execution_count":null,"outputs":[{"output_type":"stream","name":"stdout","text":["ffmpeg version 3.4.8-0ubuntu0.2 Copyright (c) 2000-2020 the FFmpeg developers\n","  built with gcc 7 (Ubuntu 7.5.0-3ubuntu1~18.04)\n","  configuration: --prefix=/usr --extra-version=0ubuntu0.2 --toolchain=hardened --libdir=/usr/lib/x86_64-linux-gnu --incdir=/usr/include/x86_64-linux-gnu --enable-gpl --disable-stripping --enable-avresample --enable-avisynth --enable-gnutls --enable-ladspa --enable-libass --enable-libbluray --enable-libbs2b --enable-libcaca --enable-libcdio --enable-libflite --enable-libfontconfig --enable-libfreetype --enable-libfribidi --enable-libgme --enable-libgsm --enable-libmp3lame --enable-libmysofa --enable-libopenjpeg --enable-libopenmpt --enable-libopus --enable-libpulse --enable-librubberband --enable-librsvg --enable-libshine --enable-libsnappy --enable-libsoxr --enable-libspeex --enable-libssh --enable-libtheora --enable-libtwolame --enable-libvorbis --enable-libvpx --enable-libwavpack --enable-libwebp --enable-libx265 --enable-libxml2 --enable-libxvid --enable-libzmq --enable-libzvbi --enable-omx --enable-openal --enable-opengl --enable-sdl2 --enable-libdc1394 --enable-libdrm --enable-libiec61883 --enable-chromaprint --enable-frei0r --enable-libopencv --enable-libx264 --enable-shared\n","  libavutil      55. 78.100 / 55. 78.100\n","  libavcodec     57.107.100 / 57.107.100\n","  libavformat    57. 83.100 / 57. 83.100\n","  libavdevice    57. 10.100 / 57. 10.100\n","  libavfilter     6.107.100 /  6.107.100\n","  libavresample   3.  7.  0 /  3.  7.  0\n","  libswscale      4.  8.100 /  4.  8.100\n","  libswresample   2.  9.100 /  2.  9.100\n","  libpostproc    54.  7.100 / 54.  7.100\n","Input #0, mov,mp4,m4a,3gp,3g2,mj2, from 'Inf_DATA/drive3.mp4':\n","  Metadata:\n","    major_brand     : isom\n","    minor_version   : 512\n","    compatible_brands: isomiso2avc1mp41\n","    encoder         : Lavf58.29.100\n","  Duration: 00:01:04.60, start: 0.000000, bitrate: 104 kb/s\n","    Stream #0:0(und): Video: h264 (High) (avc1 / 0x31637661), yuv420p, 256x256, 103 kb/s, 10 fps, 10 tbr, 10240 tbn, 20 tbc (default)\n","    Metadata:\n","      handler_name    : VideoHandler\n","Input #1, mov,mp4,m4a,3gp,3g2,mj2, from 'Comparison_6_0.mp4':\n","  Metadata:\n","    major_brand     : isom\n","    minor_version   : 512\n","    compatible_brands: isomiso2avc1mp41\n","    encoder         : Lavf57.83.100\n","  Duration: 00:01:04.60, start: 0.000000, bitrate: 180 kb/s\n","    Stream #1:0(und): Video: h264 (High) (avc1 / 0x31637661), yuv420p, 512x256, 179 kb/s, 10 fps, 10 tbr, 10240 tbn, 20 tbc (default)\n","    Metadata:\n","      handler_name    : VideoHandler\n","Stream mapping:\n","  Stream #0:0 (h264) -> hstack:input0\n","  Stream #1:0 (h264) -> hstack:input1\n","  hstack -> Stream #0:0 (libx264)\n","Press [q] to stop, [?] for help\n","\u001b[1;36m[libx264 @ 0x5635d9ce1400] \u001b[0musing cpu capabilities: MMX2 SSE2Fast SSSE3 SSE4.2 AVX FMA3 BMI2 AVX2\n","\u001b[1;36m[libx264 @ 0x5635d9ce1400] \u001b[0mprofile High, level 2.1\n","\u001b[1;36m[libx264 @ 0x5635d9ce1400] \u001b[0m264 - core 152 r2854 e9a5903 - H.264/MPEG-4 AVC codec - Copyleft 2003-2017 - http://www.videolan.org/x264.html - options: cabac=1 ref=3 deblock=1:0:0 analyse=0x3:0x113 me=hex subme=7 psy=1 psy_rd=1.00:0.00 mixed_ref=1 me_range=16 chroma_me=1 trellis=1 8x8dct=1 cqm=0 deadzone=21,11 fast_pskip=1 chroma_qp_offset=-2 threads=3 lookahead_threads=1 sliced_threads=0 nr=0 decimate=1 interlaced=0 bluray_compat=0 constrained_intra=0 bframes=3 b_pyramid=2 b_adapt=1 b_bias=0 direct=1 weightb=1 open_gop=0 weightp=2 keyint=250 keyint_min=10 scenecut=40 intra_refresh=0 rc_lookahead=40 rc=crf mbtree=1 crf=23.0 qcomp=0.60 qpmin=0 qpmax=69 qpstep=4 ip_ratio=1.40 aq=1:1.00\n","Output #0, mp4, to 'Final_Comparison_6_0.mp4':\n","  Metadata:\n","    major_brand     : isom\n","    minor_version   : 512\n","    compatible_brands: isomiso2avc1mp41\n","    encoder         : Lavf57.83.100\n","    Stream #0:0: Video: h264 (libx264) (avc1 / 0x31637661), yuv420p, 768x256, q=-1--1, 10 fps, 10240 tbn, 10 tbc (default)\n","    Metadata:\n","      encoder         : Lavc57.107.100 libx264\n","    Side data:\n","      cpb: bitrate max/min/avg: 0/0/0 buffer size: 0 vbv_delay: -1\n","frame=  646 fps= 60 q=-1.0 Lsize=    2265kB time=00:01:04.30 bitrate= 288.6kbits/s speed=5.96x    \n","video:2257kB audio:0kB subtitle:0kB other streams:0kB global headers:0kB muxing overhead: 0.371888%\n","\u001b[1;36m[libx264 @ 0x5635d9ce1400] \u001b[0mframe I:3     Avg QP:17.22  size: 21487\n","\u001b[1;36m[libx264 @ 0x5635d9ce1400] \u001b[0mframe P:171   Avg QP:19.83  size:  8673\n","\u001b[1;36m[libx264 @ 0x5635d9ce1400] \u001b[0mframe B:472   Avg QP:24.19  size:  1616\n","\u001b[1;36m[libx264 @ 0x5635d9ce1400] \u001b[0mconsecutive B-frames:  0.8%  5.0%  1.4% 92.9%\n","\u001b[1;36m[libx264 @ 0x5635d9ce1400] \u001b[0mmb I  I16..4:  6.2% 64.9% 28.9%\n","\u001b[1;36m[libx264 @ 0x5635d9ce1400] \u001b[0mmb P  I16..4:  1.0%  8.7%  1.9%  P16..4: 35.6% 29.5% 13.2%  0.0%  0.0%    skip:10.2%\n","\u001b[1;36m[libx264 @ 0x5635d9ce1400] \u001b[0mmb B  I16..4:  0.1%  0.3%  0.0%  B16..8: 45.1%  9.2%  1.5%  direct: 1.7%  skip:42.1%  L0:42.9% L1:47.0% BI:10.1%\n","\u001b[1;36m[libx264 @ 0x5635d9ce1400] \u001b[0m8x8 transform intra:73.8% inter:69.2%\n","\u001b[1;36m[libx264 @ 0x5635d9ce1400] \u001b[0mcoded y,uvDC,uvAC intra: 74.2% 83.8% 42.6% inter: 18.0% 17.3% 0.2%\n","\u001b[1;36m[libx264 @ 0x5635d9ce1400] \u001b[0mi16 v,h,dc,p: 45% 13% 24% 18%\n","\u001b[1;36m[libx264 @ 0x5635d9ce1400] \u001b[0mi8 v,h,dc,ddl,ddr,vr,hd,vl,hu: 21% 12% 15%  5% 10% 13%  8% 10%  7%\n","\u001b[1;36m[libx264 @ 0x5635d9ce1400] \u001b[0mi4 v,h,dc,ddl,ddr,vr,hd,vl,hu: 22% 16% 10%  5% 12% 11% 11%  6%  7%\n","\u001b[1;36m[libx264 @ 0x5635d9ce1400] \u001b[0mi8c dc,h,v,p: 46% 17% 25% 12%\n","\u001b[1;36m[libx264 @ 0x5635d9ce1400] \u001b[0mWeighted P-Frames: Y:0.6% UV:0.0%\n","\u001b[1;36m[libx264 @ 0x5635d9ce1400] \u001b[0mref P L0: 57.3% 18.5% 17.2%  7.0%  0.0%\n","\u001b[1;36m[libx264 @ 0x5635d9ce1400] \u001b[0mref B L0: 90.2%  7.8%  2.1%\n","\u001b[1;36m[libx264 @ 0x5635d9ce1400] \u001b[0mref B L1: 97.4%  2.6%\n","\u001b[1;36m[libx264 @ 0x5635d9ce1400] \u001b[0mkb/s:286.13\n"]}]},{"cell_type":"markdown","source":["# Trying our new method with super resoulion"],"metadata":{"id":"pwXLETIhEzLb"}},{"cell_type":"code","source":["!python demo.py --config config/vox-256.yaml --checkpoint 15kp-ep119.pth.tar  --source_image Inf_DATA/obm.jpg --driving_video Inf_DATA/drive3.mp4 --relative --adapt_scale --new_method 1 --freq 60 --result_video Testing_results/no_esrgan_60Frame.mp4"],"metadata":{"colab":{"base_uri":"https://localhost:8080/"},"id":"N936rhsME3r-","executionInfo":{"status":"ok","timestamp":1639208106419,"user_tz":-540,"elapsed":304106,"user":{"displayName":"Jonathan Akesson","photoUrl":"https://lh3.googleusercontent.com/a-/AOh14GhIgis85WlfsRo1PYQZiIVxhLizEKXvA6pATTzcpZ0=s64","userId":"16900488087846212720"}},"outputId":"7ba48d9c-601d-4070-bc8d-3c1fe7dc527d"},"execution_count":null,"outputs":[{"output_type":"stream","name":"stdout","text":["estimate jacobian: False\n","/usr/local/lib/python3.7/dist-packages/torch/nn/functional.py:3635: UserWarning: Default upsampling behavior when mode=trilinear is changed to align_corners=False since 0.4.0. Please specify align_corners=True if the old behavior is desired. See the documentation of nn.Upsample for details.\n","  \"See the documentation of nn.Upsample for details.\".format(mode)\n","demo.py:70: UserWarning: Implicit dimension choice for softmax has been deprecated. Change the call to include dim=X as an argument.\n","  pred = F.softmax(pred)\n","  0% 0/646 [00:00<?, ?it/s]/usr/local/lib/python3.7/dist-packages/torch/nn/functional.py:4004: UserWarning: Default grid_sample and affine_grid behavior has changed to align_corners=False since 1.3.0. Please specify align_corners=True if the old behavior is desired. See the documentation of grid_sample for details.\n","  \"Default grid_sample and affine_grid behavior has changed \"\n","/usr/local/lib/python3.7/dist-packages/torch/nn/functional.py:1806: UserWarning: nn.functional.sigmoid is deprecated. Use torch.sigmoid instead.\n","  warnings.warn(\"nn.functional.sigmoid is deprecated. Use torch.sigmoid instead.\")\n","100% 646/646 [04:36<00:00,  2.34it/s]\n","(256, 256, 3)\n"]}]},{"cell_type":"markdown","source":["# Trying our new method with super resolution (with some changes in initial)"],"metadata":{"id":"ddc84dMRdMAJ"}},{"cell_type":"code","source":["!python demoESRGAN.py --config config/vox-256.yaml --checkpoint 15kp-ep119.pth.tar  --source_image Inf_DATA/obm.jpg --driving_video Inf_DATA/drive3.mp4 --relative --adapt_scale --new_method 1 --freq 60 --result_video Testing_results/esrgan_60Frame.mp4"],"metadata":{"colab":{"base_uri":"https://localhost:8080/"},"executionInfo":{"status":"ok","timestamp":1639208490804,"user_tz":-540,"elapsed":327489,"user":{"displayName":"Jonathan Akesson","photoUrl":"https://lh3.googleusercontent.com/a-/AOh14GhIgis85WlfsRo1PYQZiIVxhLizEKXvA6pATTzcpZ0=s64","userId":"16900488087846212720"}},"outputId":"ea689789-b681-4255-eeca-00170d9921a7","id":"1fpVZ5MhdMAM"},"execution_count":null,"outputs":[{"output_type":"stream","name":"stdout","text":["2021-12-11 07:36:22.473516: W tensorflow/core/common_runtime/gpu/gpu_bfc_allocator.cc:39] Overriding allow_growth setting because the TF_FORCE_GPU_ALLOW_GROWTH environment variable is set. Original config value was 0.\n","estimate jacobian: False\n","/usr/local/lib/python3.7/dist-packages/torch/nn/functional.py:3635: UserWarning: Default upsampling behavior when mode=trilinear is changed to align_corners=False since 0.4.0. Please specify align_corners=True if the old behavior is desired. See the documentation of nn.Upsample for details.\n","  \"See the documentation of nn.Upsample for details.\".format(mode)\n","demoESRGAN.py:78: UserWarning: Implicit dimension choice for softmax has been deprecated. Change the call to include dim=X as an argument.\n","  pred = F.softmax(pred)\n","  0% 0/646 [00:00<?, ?it/s]/usr/local/lib/python3.7/dist-packages/torch/nn/functional.py:4004: UserWarning: Default grid_sample and affine_grid behavior has changed to align_corners=False since 1.3.0. Please specify align_corners=True if the old behavior is desired. See the documentation of grid_sample for details.\n","  \"Default grid_sample and affine_grid behavior has changed \"\n","/usr/local/lib/python3.7/dist-packages/torch/nn/functional.py:1806: UserWarning: nn.functional.sigmoid is deprecated. Use torch.sigmoid instead.\n","  warnings.warn(\"nn.functional.sigmoid is deprecated. Use torch.sigmoid instead.\")\n","100% 646/646 [04:39<00:00,  2.31it/s]\n","(256, 256, 3)\n"]}]}]}